#!OML:ASF I:\Actors\actors\Patient Classification 1\Patient 1\Session 1\Subject1.ASF
:FULLY-SPECIFIED
:DEGREES
1017
root -0.155769 17.7701 8.1256 21.6439 1.67233 -13.4317
lowerback 17.09 3.14854 6.94066
upperback 8.60608 5.02292 -1.74551
thorax 0.479882 2.76683 -6.55659
lowerneck 2.00428 1.44661 9.31934
upperneck 7.40867 1.12432 15.3193
head 2.03667 1.07894 3.45869
rclavicle 4.53229e-014 -3.97569e-014
rhumerus -78.1683 37.8636 -96.8733
rradius 120.667
rwrist -37.5073
rhand 252.318 632.48
rfingers 7.12502
rthumb 72.6018 -17.5605
lclavicle 4.53229e-014 -3.97569e-014
lhumerus -18.5186 -26.3233 79.9848
lradius 134.541
lwrist 109.013
lhand -52.6955 -19.8926
lfingers 7.12502
lthumb -25.1741 8.46729
rfemur -22.8459 16.7377 26.8022
rtibia 8.31092
rfoot -9.93848 -20.7414
rtoes 0.901584
lfemur -200.034 230.575 -165.012
ltibia -2.86487
lfoot 140.169 -119.125
ltoes 23.0225
1018
root -0.160641 17.7736 8.1334 21.798 1.42266 -13.07
lowerback 16.9136 3.26797 6.42842
upperback 8.57235 5.09311 -1.81555
thorax 0.498594 2.78573 -6.33976
lowerneck 1.96166 1.4406 9.32652
upperneck 7.47813 1.10177 15.2476
head 2.06847 1.07465 3.4343
rclavicle -1.98785e-014 3.89618e-014
rhumerus -78.2048 37.8984 -96.8691
rradius 120.607
rwrist -37.0931
rhand 253.068 632.228
rfingers 7.12502
rthumb 72.2164 -15.2802
lclavicle -1.98785e-014 3.89618e-014
lhumerus -18.5548 -26.4795 79.7939
lradius 134.385
lwrist 108.743
lhand -52.4116 -19.6896
lfingers 7.12502
lthumb -24.902 8.7082
rfemur -23.0292 16.9305 26.2629
rtibia 8.32861
rfoot -9.87873 -20.8565
rtoes 0.945504
lfemur -200.229 230.868 -165.234
ltibia -2.81723
lfoot 139.01 -119.037
ltoes 23.6627
1019
root -0.167922 17.7786 8.1415 22.04 1.10186 -12.5281
lowerback 16.6332 3.41762 5.65686
upperback 8.50324 5.16374 -1.90166
thorax 0.506977 2.79504 -5.98747
lowerneck 2.12539 1.43469 9.31598
upperneck 7.42154 1.13256 15.1546
head 2.01805 1.07651 3.39858
rclavicle 5.24792e-014 -3.18055e-014
rhumerus -78.566 38.0533 -97.2163
rradius 120.514
rwrist -36.9155
rhand 253.708 632.117
rfingers 7.12502
rthumb 71.8699 -13.509
lclavicle 5.24792e-014 -3.18055e-014
lhumerus -18.4394 -26.6621 79.4893
lradius 134.304
lwrist 108.672
lhand -52.2324 -19.462
lfingers 7.12502
lthumb -24.7303 8.95945
rfemur -23.3151 17.1354 25.4547
rtibia 8.31591
rfoot -9.86204 -20.9639
rtoes 1.12581
lfemur -200.593 231.215 -165.533
ltibia -2.72754
lfoot 137.687 -118.919
ltoes 24.3511
1020
root -0.171498 17.7799 8.14203 22.1005 0.964199 -12.438
lowerback 16.6253 3.52588 5.54156
upperback 8.45187 5.28765 -1.92451
thorax 0.463951 2.85024 -5.96551
lowerneck 2.2735 1.36153 9.42854
upperneck 7.20679 1.09817 15.0516
head 1.92087 1.0376 3.33368
rclavicle 3.73715e-014 -3.18055e-015
rhumerus -78.6558 37.9415 -97.3878
rradius 120.509
rwrist -37.0684
rhand 253.295 632.721
rfingers 7.12502
rthumb 72.095 -15.1761
lclavicle 3.73715e-014 -3.18055e-015
lhumerus -18.0217 -27.0918 78.9777
lradius 134.317
lwrist 108.734
lhand -52.3337 -19.4028
lfingers 7.12502
lthumb -24.8273 9.00536
rfemur -23.3744 17.238 25.2973
rtibia 8.27583
rfoot -9.83602 -20.9656
rtoes 1.27337
lfemur -200.602 231.107 -165.659
ltibia -2.70425
lfoot 137.655 -118.945
ltoes 24.3548
1021
root -0.170282 17.777 8.13564 21.9418 1.08823 -12.8768
lowerback 16.8837 3.50474 6.15912
upperback 8.42823 5.36218 -1.81514
thorax 0.370931 2.90057 -6.22893
lowerneck 2.38083 1.31219 9.45357
upperneck 6.96014 1.09143 15.0076
head 1.81906 1.01006 3.30538
rclavicle -2.70347e-014 7.95139e-015
rhumerus -78.4868 37.8202 -97.2606
rradius 120.615
rwrist -37.3839
rhand 252.047 633.666
rfingers 7.12502
rthumb 72.7355 -19.5023
lclavicle -2.70347e-014 7.95139e-015
lhumerus -17.4856 -27.6232 78.3464
lradius 134.388
lwrist 108.566
lhand -52.3542 -19.3645
lfingers 7.12502
lthumb -24.847 9.04089
rfemur -23.1686 17.2049 25.9212
rtibia 8.24566
rfoot -9.85831 -20.8716
rtoes 1.36389
lfemur -200.216 230.581 -165.522
ltibia -2.78419
lfoot 138.82 -119.161
ltoes 23.8243
